<svg width="38" height="36" viewBox="0 0 38 36" fill="none" xmlns="http://www.w3.org/2000/svg">
<path d="M1.76441 12.7131L19 0.84979L36.2356 12.7131L29.668 31.8623H8.33203L1.76441 12.7131Z" stroke="#35688D" stroke-width="1.4"/>
<path fill-rule="evenodd" clip-rule="evenodd" d="M13.6667 15.6667C13.2985 15.6667 13 15.9278 13 16.25V22.0833C13 22.4055 13.2985 22.6667 13.6667 22.6667H24.3333C24.7015 22.6667 25 22.4055 25 22.0833V16.25C25 15.9278 24.7015 15.6667 24.3333 15.6667H13.6667ZM11.6667 16.25C11.6667 15.2835 12.5621 14.5 13.6667 14.5H24.3333C25.4379 14.5 26.3333 15.2835 26.3333 16.25V22.0833C26.3333 23.0498 25.4379 23.8333 24.3333 23.8333H13.6667C12.5621 23.8333 11.6667 23.0498 11.6667 22.0833V16.25Z" fill="#35688D"/>
<path fill-rule="evenodd" clip-rule="evenodd" d="M16.2525 12.6792C16.6275 12.351 17.1362 12.1667 17.6667 12.1667H20.3333C20.8638 12.1667 21.3725 12.351 21.7476 12.6792C22.1226 13.0074 22.3333 13.4525 22.3333 13.9167V23.25C22.3333 23.5722 22.0349 23.8333 21.6667 23.8333C21.2985 23.8333 21 23.5722 21 23.25V13.9167C21 13.762 20.9298 13.6136 20.8047 13.5042C20.6797 13.3948 20.5101 13.3333 20.3333 13.3333H17.6667C17.4899 13.3333 17.3203 13.3948 17.1953 13.5042C17.0702 13.6136 17 13.762 17 13.9167V23.25C17 23.5722 16.7015 23.8333 16.3333 23.8333C15.9651 23.8333 15.6667 23.5722 15.6667 23.25V13.9167C15.6667 13.4525 15.8774 13.0074 16.2525 12.6792Z" fill="#35688D"/>
</svg>
