<svg width="38" height="35" viewBox="0 0 38 35" fill="none" xmlns="http://www.w3.org/2000/svg">
<path d="M1.53057 12.2919L19 0.601625L36.4694 12.2919L29.8141 31.1578H8.18589L1.53057 12.2919Z" stroke="#35688D"/>
<path fill-rule="evenodd" clip-rule="evenodd" d="M13.9763 19.3766C14.6014 18.8687 15.4493 18.5833 16.3333 18.5833H21.6667C22.5507 18.5833 23.3986 18.8687 24.0237 19.3766C24.6488 19.8845 25 20.5734 25 21.2917V22.375C25 22.6742 24.7015 22.9167 24.3333 22.9167C23.9651 22.9167 23.6667 22.6742 23.6667 22.375V21.2917C23.6667 20.8607 23.456 20.4474 23.0809 20.1426C22.7058 19.8379 22.1971 19.6667 21.6667 19.6667H16.3333C15.8029 19.6667 15.2942 19.8379 14.9191 20.1426C14.544 20.4474 14.3333 20.8607 14.3333 21.2917V22.375C14.3333 22.6742 14.0349 22.9167 13.6667 22.9167C13.2985 22.9167 13 22.6742 13 22.375V21.2917C13 20.5734 13.3512 19.8845 13.9763 19.3766Z" fill="#35688D"/>
<path fill-rule="evenodd" clip-rule="evenodd" d="M19 13.1667C17.8954 13.1667 17 13.8942 17 14.7917C17 15.6891 17.8954 16.4167 19 16.4167C20.1046 16.4167 21 15.6891 21 14.7917C21 13.8942 20.1046 13.1667 19 13.1667ZM15.6667 14.7917C15.6667 13.2959 17.1591 12.0833 19 12.0833C20.841 12.0833 22.3333 13.2959 22.3333 14.7917C22.3333 16.2874 20.841 17.5 19 17.5C17.1591 17.5 15.6667 16.2874 15.6667 14.7917Z" fill="#35688D"/>
</svg>
